<?xml version="1.0" encoding="UTF-8" standalone="no"?><svg xmlns="http://www.w3.org/2000/svg" xmlns:xlink="http://www.w3.org/1999/xlink" contentScriptType="application/ecmascript" contentStyleType="text/css" height="517px" preserveAspectRatio="none" style="width:836px;height:517px;" version="1.1" viewBox="0 0 836 517" width="836px" zoomAndPan="magnify"><defs><filter height="300%" id="f1tdknl8bk18jr" width="300%" x="-1" y="-1"><feGaussianBlur result="blurOut" stdDeviation="2.0"/><feColorMatrix in="blurOut" result="blurOut2" type="matrix" values="0 0 0 0 0 0 0 0 0 0 0 0 0 0 0 0 0 0 .4 0"/><feOffset dx="4.0" dy="4.0" in="blurOut2" result="blurOut3"/><feBlend in="SourceGraphic" in2="blurOut3" mode="normal"/></filter></defs><g><!--MD5=[88656e78e5bedad418341b6ececa151e]
cluster AWS--><path d="M169.0178,33.0487 C183.7245,8.7938 200.4339,9.8114 214.192,33.9344 C226.2684,13.0607 245.6215,17.2298 255.9038,35.8302 C271.0298,16.2123 288.4541,12.1496 301.6622,37.7702 C312.2867,15.5337 332.9197,20.2102 344.1437,37.1195 C357.4183,15.0954 373.9877,9.9066 392.0106,31.9634 C403.4734,13.0988 417.7186,9.5289 431.1087,30.0501 C447.8101,6 473.3201,7.0909 482.8258,36.9529 C493.769,19.4551 507.8769,15.3614 522.3631,32.9618 C538.8667,12.3151 557.1399,11.0389 571.1195,35.6791 C585.4702,14.6552 599.3631,18.7943 610.9904,38.3546 C624.2111,16.6884 643.497,19.4145 656.621,38.4629 C668.4543,13.5718 688.2299,15.365 704.3019,33.7981 C721.5249,14.9511 734.4152,19.4631 745.8663,39.9046 C759.4621,17.957 780.4551,18.9896 794.5,39.3889 C800.2681,37.6388 803.0944,40.6575 801.7069,46.3334 C818.4586,56.6625 817.6584,70.8459 802.3869,81.7892 C822.2365,98.3717 819.0918,118.6577 795.9471,129.4283 C811.8902,138.2552 817.4109,156.6293 797.4448,166.8918 C822.0346,179.0407 820.8619,197.7932 799.5789,212.1073 C820.4396,227.8837 819.3456,242.8878 798.605,257.777 C818.3367,271.0389 818.472,285.4383 800.1429,300.0838 C814.2015,313.3918 814.0815,326.464 795.9986,336.0704 C815.4991,346.2369 819.7192,362.9415 801.3659,377.9585 C824.2499,389.459 823.8858,409.9727 800.3204,420.327 C820.1165,442.5277 811.7192,457.1787 787.5,467.3889 C791.0435,465.7781 793.9281,467.5257 793.0248,471.663 C776.1691,494.9922 758.1642,491.8713 743.4187,469.3785 C733.1922,494.0883 716.4757,492.1366 700.2424,475.6785 C688.9169,494.9163 669.7955,498.0976 657.5319,476.6637 C647.831,499.6969 627.6691,497.1642 614.6142,480.2687 C595.815,498.8462 580.3656,504.5312 565.144,476.4737 C555.746,498.4718 538.9765,500.1292 523.6825,482.669 C511.3192,505.9295 489.2463,504.7736 475.6143,484.0558 C461.3883,499.5074 447.8955,499.1705 437.3645,479.9764 C421.0925,497.2759 407.4095,499.9946 392.7343,478.1556 C378.9597,499.1165 358.677,501.0358 345.3325,477.6953 C330.4664,494.8935 309.0349,495.9624 299.076,472.159 C289.6141,489.4382 269.7846,491.5797 258.249,474.6326 C244.361,495.8097 227.3445,495.5727 212.0883,476.1898 C186.8368,494.375 167.7467,488.7782 155.5,460.3889 C160.5855,459.963 163.5885,462.8918 162.0215,468.0954 C139.5532,457.6515 136.9017,439.9119 156.9072,424.4868 C136.4982,410.4508 133.3829,392.7741 154.7451,376.8425 C136.1162,365.2834 139.7351,352.7524 155.3076,341.7414 C137.9497,326.4688 135.0612,307.0491 160.524,296.7401 C137.34,287.1854 138.3126,273.1453 154.8131,257.7744 C135.2576,243.135 139.1173,223.0358 161.0309,214.3318 C138.9487,199.9993 135.5867,182.2473 160.944,167.8261 C139.5263,156.8404 138.2374,135.7414 161.2625,125.0869 C143.8022,113.8713 140.1911,96.1881 159.6079,83.5051 C136.7843,66.3231 134.1739,46.677 162.5,32.3889 C164.9234,29.8943 167.147,30.0836 169.0178,33.0487 " fill="#FFFFFF" filter="url(#f1tdknl8bk18jr)" style="stroke: #CCCCCC; stroke-width: 1.5;"/><text fill="#000000" font-family="sans-serif" font-size="14" font-weight="bold" lengthAdjust="spacingAndGlyphs" textLength="31" x="459.5" y="50.9241">AWS</text><!--MD5=[addf083e429417be7ad7bace6a60d70a]
cluster S3--><polygon fill="#FFFFFF" filter="url(#f1tdknl8bk18jr)" points="405.5,355.3889,428.5,355.3889,435.5,377.8772,735.5,377.8772,735.5,451.3889,405.5,451.3889,405.5,355.3889" style="stroke: #000000; stroke-width: 1.5;"/><line style="stroke: #000000; stroke-width: 1.5;" x1="405.5" x2="435.5" y1="377.8772" y2="377.8772"/><text fill="#000000" font-family="sans-serif" font-size="14" font-weight="bold" lengthAdjust="spacingAndGlyphs" textLength="17" x="409.5" y="370.9241">S3</text><!--MD5=[7fe68037130c9e1236268aed1efd192a]
cluster SQS--><polygon fill="#FFFFFF" filter="url(#f1tdknl8bk18jr)" points="474.5,67.3889,508.5,67.3889,515.5,89.8772,632.5,89.8772,632.5,164.3889,474.5,164.3889,474.5,67.3889" style="stroke: #000000; stroke-width: 1.5;"/><line style="stroke: #000000; stroke-width: 1.5;" x1="474.5" x2="515.5" y1="89.8772" y2="89.8772"/><text fill="#000000" font-family="sans-serif" font-size="14" font-weight="bold" lengthAdjust="spacingAndGlyphs" textLength="28" x="478.5" y="82.9241">SQS</text><!--MD5=[321d7da2d91333a0f2caa4f62a98c4a7]
cluster Lambda--><polygon fill="#FFFFFF" filter="url(#f1tdknl8bk18jr)" points="200.5,213.3889,262.5,213.3889,269.5,235.8772,778.5,235.8772,778.5,306.3889,200.5,306.3889,200.5,213.3889" style="stroke: #000000; stroke-width: 1.5;"/><line style="stroke: #000000; stroke-width: 1.5;" x1="200.5" x2="269.5" y1="235.8772" y2="235.8772"/><text fill="#000000" font-family="sans-serif" font-size="14" font-weight="bold" lengthAdjust="spacingAndGlyphs" textLength="56" x="204.5" y="228.9241">Lambda</text><!--MD5=[ea599e07dd8a59c405ef7e08eed99d5b]
entity ApiGw--><ellipse cx="172.5" cy="269.3889" fill="#FEFECE" filter="url(#f1tdknl8bk18jr)" rx="8" ry="8" style="stroke: #A80036; stroke-width: 2.0;"/><text fill="#000000" font-family="sans-serif" font-size="14" lengthAdjust="spacingAndGlyphs" textLength="83" x="131" y="299.9241">API Gateway</text><!--MD5=[5a6e57fb0bb3733371996b9bff940280]
entity AnswersBucket--><path d="M422,400.3889 C422,390.3889 485.5,390.3889 485.5,390.3889 C485.5,390.3889 549,390.3889 549,400.3889 L549,425.8772 C549,435.8772 485.5,435.8772 485.5,435.8772 C485.5,435.8772 422,435.8772 422,425.8772 L422,400.3889 " fill="#FEFECE" filter="url(#f1tdknl8bk18jr)" style="stroke: #000000; stroke-width: 1.5;"/><path d="M422,400.3889 C422,410.3889 485.5,410.3889 485.5,410.3889 C485.5,410.3889 549,410.3889 549,400.3889 " fill="none" style="stroke: #000000; stroke-width: 1.5;"/><text fill="#000000" font-family="sans-serif" font-size="14" lengthAdjust="spacingAndGlyphs" textLength="107" x="432" y="427.9241">Answers Bucket</text><!--MD5=[3372bf075aa4df374ffe1cb835abefda]
entity DatastoreBucket--><path d="M584,400.3889 C584,390.3889 651.5,390.3889 651.5,390.3889 C651.5,390.3889 719,390.3889 719,400.3889 L719,425.8772 C719,435.8772 651.5,435.8772 651.5,435.8772 C651.5,435.8772 584,435.8772 584,425.8772 L584,400.3889 " fill="#FEFECE" filter="url(#f1tdknl8bk18jr)" style="stroke: #000000; stroke-width: 1.5;"/><path d="M584,400.3889 C584,410.3889 651.5,410.3889 651.5,410.3889 C651.5,410.3889 719,410.3889 719,400.3889 " fill="none" style="stroke: #000000; stroke-width: 1.5;"/><text fill="#000000" font-family="sans-serif" font-size="14" lengthAdjust="spacingAndGlyphs" textLength="115" x="594" y="427.9241">Datastore Bucket</text><!--MD5=[ae9491b1f05e7481b522a18f7fd260b4]
entity Answers.fifo--><polygon fill="#FEFECE" filter="url(#f1tdknl8bk18jr)" points="491,112.3889,501,102.3889,616,102.3889,616,138.8772,606,148.8772,491,148.8772,491,112.3889" style="stroke: #000000; stroke-width: 1.5;"/><line style="stroke: #000000; stroke-width: 1.5;" x1="606" x2="615" y1="112.3889" y2="103.3889"/><line style="stroke: #000000; stroke-width: 1.5;" x1="491" x2="606" y1="112.3889" y2="112.3889"/><line style="stroke: #000000; stroke-width: 1.5;" x1="606" x2="606" y1="112.3889" y2="148.8772"/><text fill="#000000" font-family="sans-serif" font-size="14" lengthAdjust="spacingAndGlyphs" textLength="85" x="506" y="135.9241">Answers.fifo</text><ellipse cx="286.3562" cy="269.1602" fill="#FEFECE" filter="url(#f1tdknl8bk18jr)" rx="69.3562" ry="16.2712" style="stroke: #A80036; stroke-width: 1.5;"/><text fill="#000000" font-family="sans-serif" font-size="14" lengthAdjust="spacingAndGlyphs" textLength="104" x="234.3562" y="273.9043">λ listenCapture</text><ellipse cx="485.3853" cy="269.566" fill="#FEFECE" filter="url(#f1tdknl8bk18jr)" rx="93.8853" ry="21.1771" style="stroke: #A80036; stroke-width: 1.5;"/><text fill="#000000" font-family="sans-serif" font-size="14" lengthAdjust="spacingAndGlyphs" textLength="162" x="404.3853" y="274.3101">λ listenQuestionTrigger</text><ellipse cx="688.6558" cy="269.6201" fill="#FEFECE" filter="url(#f1tdknl8bk18jr)" rx="74.1558" ry="17.2312" style="stroke: #A80036; stroke-width: 1.5;"/><text fill="#000000" font-family="sans-serif" font-size="14" lengthAdjust="spacingAndGlyphs" textLength="116" x="630.6558" y="274.3642">λ listenDataStore</text><!--MD5=[ee365911ebe9e15021bace07ba55d177]
entity React Client--><rect fill="#FEFECE" filter="url(#f1tdknl8bk18jr)" height="46.4883" style="stroke: #A80036; stroke-width: 1.5;" width="121" x="7" y="246.3889"/><rect fill="#FEFECE" height="10" style="stroke: #A80036; stroke-width: 1.5;" width="15" x="108" y="251.3889"/><rect fill="#FEFECE" height="2" style="stroke: #A80036; stroke-width: 1.5;" width="4" x="106" y="253.3889"/><rect fill="#FEFECE" height="2" style="stroke: #A80036; stroke-width: 1.5;" width="4" x="106" y="257.3889"/><text fill="#000000" font-family="sans-serif" font-size="14" lengthAdjust="spacingAndGlyphs" textLength="81" x="22" y="279.9241">React Client</text><!--MD5=[87dd9cff1e2376cda2d7182faedec494]
link React Client to ApiGw--><path d="M128.2,269.3889 C139.85,269.3889 151.51,269.3889 163.16,269.3889 " fill="none" id="React Client-ApiGw" style="stroke: #000000; stroke-width: 1.0;"/><!--MD5=[acd861757451833775332a5666697859]
link ApiGw to listenCapture--><path d="M181.85,269.3889 C193.43,269.3889 205.02,269.3889 216.6,269.3889 " fill="none" id="ApiGw-listenCapture" style="stroke: #000000; stroke-width: 1.0;"/><!--MD5=[c254e14970924305e5e4f420755f3ad1]
link listenCapture to AnswersBucket--><path d="M307.42,285.2689 C341.57,309.5489 409.64,357.9489 451.02,387.3689 " fill="none" id="listenCapture-&gt;AnswersBucket" style="stroke: #000000; stroke-width: 1.0;"/><polygon fill="#000000" points="455.18,390.3289,450.1701,381.8495,451.1075,387.4282,445.5288,388.3655,455.18,390.3289" style="stroke: #000000; stroke-width: 1.0;"/><text fill="#000000" font-family="sans-serif" font-size="13" lengthAdjust="spacingAndGlyphs" textLength="28" x="380.5" y="335.9573">save</text><!--MD5=[7e00724191f4efaa738d177d30c6b3d2]
link AnswersBucket to listenQuestionTrigger--><path d="M485.5,390.2589 C485.5,364.8589 485.5,322.7889 485.5,295.8389 " fill="none" id="AnswersBucket-&gt;listenQuestionTrigger" style="stroke: #CC0000; stroke-width: 1.0; stroke-dasharray: 7.0,7.0;"/><polygon fill="#CC0000" points="485.5,290.6589,481.5,299.6589,485.5,295.6589,489.5,299.6589,485.5,290.6589" style="stroke: #CC0000; stroke-width: 1.0;"/><text fill="#000000" font-family="sans-serif" font-size="13" lengthAdjust="spacingAndGlyphs" textLength="42" x="486.5" y="335.9573">trigger</text><!--MD5=[0607beb81bcf2eb842546e77c07a857e]
link listenQuestionTrigger to Answers.fifo--><path d="M495.17,248.1989 C507.1,223.2789 527.42,180.8489 540.65,153.2189 " fill="none" id="listenQuestionTrigger-&gt;Answers.fifo" style="stroke: #000000; stroke-width: 1.0;"/><polygon fill="#000000" points="542.88,148.5789,535.3826,154.9656,540.7187,153.0877,542.5966,158.4237,542.88,148.5789" style="stroke: #000000; stroke-width: 1.0;"/><text fill="#000000" font-family="sans-serif" font-size="13" lengthAdjust="spacingAndGlyphs" textLength="31" x="528.5" y="193.9573">push</text><!--MD5=[1dc0d723e0700c5511c22bfee10d0124]
link Answers.fifo to listenDataStore--><path d="M574.59,148.5789 C600.75,176.0889 644.91,222.5389 669.87,248.7889 " fill="none" id="Answers.fifo-&gt;listenDataStore" style="stroke: #CC0000; stroke-width: 1.0; stroke-dasharray: 7.0,7.0;"/><polygon fill="#CC0000" points="673.41,252.5089,670.0978,243.2337,669.961,248.8889,664.3058,248.7521,673.41,252.5089" style="stroke: #CC0000; stroke-width: 1.0;"/><text fill="#000000" font-family="sans-serif" font-size="13" lengthAdjust="spacingAndGlyphs" textLength="42" x="621.5" y="193.9573">trigger</text><!--MD5=[3e3b29c31222e635f3f3e5802d535f5c]
link listenDataStore to DatastoreBucket--><path d="M684.26,286.6189 C677.94,310.7789 666,356.4489 658.41,385.4589 " fill="none" id="listenDataStore-&gt;DatastoreBucket" style="stroke: #000000; stroke-width: 1.0;"/><polygon fill="#000000" points="657.14,390.3189,663.2943,382.6297,658.4097,385.4828,655.5565,380.5982,657.14,390.3189" style="stroke: #000000; stroke-width: 1.0;"/><text fill="#000000" font-family="sans-serif" font-size="13" lengthAdjust="spacingAndGlyphs" textLength="28" x="674.5" y="335.9573">save</text><!--MD5=[c26d6424b31739b26e03289ab2473975]
@startuml
skinparam componentStyle uml2
skinparam ArrowColor #000000

skinparam cloud {
  BorderColor #cccccc
}


cloud AWS {

  () "API Gateway" as ApiGw

  package S3 {
    database "Answers Bucket" as AnswersBucket
    database "Datastore Bucket" as DatastoreBucket
  }

  package SQS {
    node "Answers.fifo"
  }

  package Lambda {
    (λ listenCapture) as listenCapture
    (λ listenQuestionTrigger) as listenQuestionTrigger
    (λ listenDataStore) as listenDataStore
  }

}

[React Client] - ApiGw
ApiGw - listenCapture

listenCapture - -> AnswersBucket :save
AnswersBucket .[#CC0000].> listenQuestionTrigger :trigger
listenQuestionTrigger - -> Answers.fifo :push
Answers.fifo .[#CC0000].> listenDataStore :trigger
listenDataStore - -> DatastoreBucket :save

@enduml

PlantUML version 1.2020.14(Sat Jun 20 15:14:34 BST 2020)
(GPL source distribution)
Java Runtime: OpenJDK Runtime Environment
JVM: OpenJDK 64-Bit Server VM
Default Encoding: UTF-8
Language: en
Country: GB
--></g></svg>